<svg width="27" height="26" viewBox="0 0 27 26" fill="none" xmlns="http://www.w3.org/2000/svg">
<path d="M25.6398 11.309C25.6392 11.3084 25.6386 11.3078 25.638 11.3072L15.0321 0.70166C14.58 0.24939 13.979 0.000244141 13.3397 0.000244141C12.7003 0.000244141 12.0993 0.249191 11.647 0.701462L1.04663 11.3017C1.04306 11.3052 1.03949 11.309 1.03592 11.3126C0.107571 12.2463 0.109158 13.7612 1.04048 14.6925C1.46597 15.1182 2.02794 15.3647 2.62878 15.3905C2.65318 15.3929 2.67778 15.3941 2.70257 15.3941H3.12529V23.1991C3.12529 24.7436 4.38192 26.0002 5.92678 26.0002H10.0762C10.4967 26.0002 10.8379 25.6593 10.8379 25.2385V19.1194C10.8379 18.4146 11.4112 17.8413 12.1159 17.8413H14.5634C15.2682 17.8413 15.8414 18.4146 15.8414 19.1194V25.2385C15.8414 25.6593 16.1824 26.0002 16.6031 26.0002H20.7525C22.2974 26.0002 23.554 24.7436 23.554 23.1991V15.3941H23.946C24.5851 15.3941 25.1862 15.1452 25.6386 14.6929C26.5709 13.76 26.5713 12.2425 25.6398 11.309Z" fill="white"/>
</svg>
