<svg width="58px" height="26px" viewBox="0 0 40 18" fill="none" xmlns="http://www.w3.org/2000/svg">
<path d="M0.408203 3.05664V1.96094H9.71094V3.05664H5.62891V17H4.49023V3.05664H0.408203ZM10.7637 13.6055L11.7949 13.2402C12.0527 14.5579 12.819 15.4245 14.0938 15.8398C14.5521 15.9401 14.7812 15.9902 14.7812 15.9902V17.0645C13.4922 17.0645 12.418 16.5202 11.5586 15.4316C11.043 14.7728 10.778 14.1641 10.7637 13.6055ZM10.9355 5.97852C10.9355 4.44596 11.6087 3.29297 12.9551 2.51953C13.5996 2.14714 14.2083 1.96094 14.7812 1.96094V3.03516C14.2656 3.04948 13.7214 3.28581 13.1484 3.74414C12.4323 4.36003 12.0671 5.13346 12.0527 6.06445C12.0527 7.13867 12.8262 7.90495 14.373 8.36328C14.5306 8.42057 15.3398 8.59961 16.8008 8.90039C17.0872 8.95768 17.3164 9.01497 17.4883 9.07227C18.806 9.47331 19.6439 10.1536 20.002 11.1133C20.1595 11.5573 20.2383 12.0586 20.2383 12.6172C20.2383 13.8346 19.7585 14.8945 18.7988 15.7969C17.9108 16.6419 16.901 17.0645 15.7695 17.0645V15.9902C16.3997 15.9902 17.0658 15.7038 17.7676 15.1309C18.6413 14.4004 19.0853 13.5339 19.0996 12.5312C19.0996 11.3138 18.276 10.4759 16.6289 10.0176C16.5 9.98893 15.7409 9.83854 14.3516 9.56641C14.0078 9.49479 13.75 9.43034 13.5781 9.37305C12.418 8.91471 11.6589 8.34896 11.3008 7.67578C11.0573 7.20312 10.9355 6.63737 10.9355 5.97852ZM15.7695 3.03516V1.96094C17.0586 1.96094 18.1257 2.54818 18.9707 3.72266C19.3431 4.23828 19.5651 4.70378 19.6367 5.11914L18.5625 5.46289C18.4479 5.0332 18.276 4.65365 18.0469 4.32422C17.8177 3.99479 17.5742 3.7513 17.3164 3.59375C17.0586 3.4362 16.8079 3.31445 16.5645 3.22852C16.3353 3.12826 16.1419 3.07096 15.9844 3.05664L15.7695 3.03516ZM21.7422 17V1.96094H22.8809V17H21.7422ZM24.6426 12.875V5.74219C24.6569 4.9401 24.9863 4.15234 25.6309 3.37891C26.4902 2.36198 27.5859 1.85352 28.918 1.85352V2.94922C27.9154 2.96354 27.0918 3.37891 26.4473 4.19531C26.0033 4.76823 25.7812 5.39844 25.7812 6.08594V12.875C25.7812 14.0781 26.3828 14.9948 27.5859 15.625C28.1016 15.8828 28.5456 16.0117 28.918 16.0117V17.1074C28.0299 17.1074 27.1706 16.8066 26.3398 16.2051C25.2227 15.3743 24.6569 14.2643 24.6426 12.875ZM29.9062 17.1074V16.0117C30.4792 16.0117 31.0951 15.7109 31.7539 15.1094C32.4557 14.4362 32.8138 13.7057 32.8281 12.918V10.4902H29.9062V9.41602H33.9883V13.2188C33.9883 14.0924 33.5443 14.959 32.6562 15.8184C31.7539 16.6634 30.8372 17.0931 29.9062 17.1074ZM29.9062 2.94922V1.85352C31.0234 1.83919 32.0117 2.30469 32.8711 3.25C33.6159 4.06641 33.9883 4.95443 33.9883 5.91406L32.8711 6.32227C32.8711 6.10742 32.8639 5.97135 32.8496 5.91406C32.7493 4.71094 32.1549 3.83008 31.0664 3.27148C30.6367 3.05664 30.25 2.94922 29.9062 2.94922Z" fill="white"/>
<path d="M0 2.5H40" stroke="white" stroke-width="1.2"/>
<line x1="22.375" y1="1" x2="22.375" stroke="white" stroke-width="1.25"/>
</svg>
