<svg width="22" height="22" viewBox="0 0 22 22" fill="none" xmlns="http://www.w3.org/2000/svg">
<path d="M14.2861 3.34018C11.1564 0.210499 6.06262 0.210499 2.93294 3.34018C-0.19607 6.47054 -0.19607 11.5637 2.93294 14.694C5.72 17.4804 10.0607 17.7789 13.1884 15.6031C13.2542 15.9145 13.4048 16.2117 13.647 16.4539L18.2048 21.0117C18.869 21.6746 19.9423 21.6746 20.6031 21.0117C21.2667 20.3482 21.2667 19.2749 20.6031 18.6134L16.0453 14.0542C15.8045 13.8141 15.5066 13.6628 15.1952 13.597C17.3724 10.4686 17.0738 6.12861 14.2861 3.34018ZM12.8471 13.255C10.5105 15.5916 6.70782 15.5916 4.37192 13.255C2.0367 10.9185 2.0367 7.11643 4.37192 4.77985C6.70782 2.44395 10.5105 2.44395 12.8471 4.77985C15.1837 7.11643 15.1837 10.9185 12.8471 13.255Z" fill="black"/>
</svg>
